<svg width="28" height="28" viewBox="0 0 28 28" fill="none" xmlns="http://www.w3.org/2000/svg">
    <g clip-path="url(#clip0_31_394)">
        <path d="M14 28C21.732 28 28 21.732 28 14C28 6.26801 21.732 0 14 0C6.26801 0 0 6.26801 0 14C0 21.732 6.26801 28 14 28Z" fill="#0052B4"/>
        <path d="M14.0001 22.5217L13.5467 21.1267H12.08L13.2667 20.2646L12.8134 18.8696L14.0001 19.7317L15.1868 18.8696L14.7335 20.2646L15.9201 21.1267H14.4533L14.0001 22.5217Z" fill="#FFDA44"/>
        <path d="M20.0259 20.0258L18.7189 19.3599L17.6817 20.3971L17.9112 18.9483L16.6044 18.2824L18.053 18.0529L18.2825 16.6042L18.9484 17.9112L20.3971 17.6816L19.3599 18.7189L20.0259 20.0258Z" fill="#FFDA44"/>
        <path d="M7.97419 20.0258L8.64012 18.7188L7.60303 17.6816L9.05175 17.9112L9.71757 16.6042L9.9471 18.0529L11.3958 18.2824L10.089 18.9483L10.3184 20.397L9.28122 19.3599L7.97419 20.0258Z" fill="#FFDA44"/>
        <path d="M22.5217 14L21.1267 14.4533V15.9201L20.2645 14.7334L18.8696 15.1867L19.7318 14L18.8696 12.8133L20.2646 13.2666L21.1267 12.0799V13.5468L22.5217 14Z" fill="#FFDA44"/>
        <path d="M5.47833 14L6.87336 13.5467V12.0799L7.73545 13.2666L9.13053 12.8133L8.26827 14L9.13053 15.1867L7.73545 14.7334L6.87336 15.9201V14.4533L5.47833 14Z" fill="#FFDA44"/>
        <path d="M20.0259 7.97421L19.36 9.28124L20.3971 10.3184L18.9483 10.0888L18.2825 11.3958L18.053 9.94706L16.6044 9.71754L17.9112 9.05166L17.6817 7.60304L18.719 8.64014L20.0259 7.97421Z" fill="#FFDA44"/>
        <path d="M7.97419 7.97422L9.28122 8.64009L10.3184 7.603L10.0888 9.05167L11.3958 9.7176L9.9471 9.94707L9.71763 11.3958L9.0517 10.0889L7.60303 10.3184L8.64018 9.28125L7.97419 7.97422Z" fill="#FFDA44"/>
        <path d="M14.0001 5.47827L14.4534 6.87329H15.9201L14.7335 7.73544L15.1868 9.13047L14.0001 8.26826L12.8134 9.13047L13.2667 7.73544L12.08 6.87329H13.5468L14.0001 5.47827Z" fill="#FFDA44"/>
    </g>
    <defs>
        <clipPath id="clip0_31_394">
            <rect width="28" height="28" fill="white"/>
        </clipPath>
    </defs>
</svg>